<?xml version="1.0" standalone="no"?>
<!DOCTYPE svg PUBLIC "-//W3C//DTD SVG 1.1//EN" "http://www.w3.org/Graphics/SVG/1.1/DTD/svg11.dtd">
<svg version="1.1" xmlns="http://www.w3.org/2000/svg" viewBox="0 0 1073.130808126822 481.4877801567056" width="2146.261616253644" height="962.9755603134112"><!-- svg-source:excalidraw --><metadata></metadata><defs><style class="style-fonts">
      @font-face { font-family: Excalifont; src: url(https://esm.sh/@excalidraw/excalidraw/dist/prod/fonts/Excalifont/Excalifont-Regular-a88b72a24fb54c9f94e3b5fdaa7481c9.woff2); }</style></defs><rect x="0" y="0" width="1073.130808126822" height="481.4877801567056" fill="#ffffff"></rect><g stroke-linecap="round"><g stroke-opacity="0.5" fill-opacity="0.5" transform="translate(327.244146319242 15.220202031705583) rotate(0 294.0511115160349 226.99748883928572)"><path d="M0 0 C186.61 141.73, 371.92 285.14, 588.1 453.99 M0 0 C186.36 143.23, 374.07 288.29, 588.1 453.99" stroke="#1971c2" stroke-width="2" fill="none"></path></g><g stroke-opacity="0.5" fill-opacity="0.5" transform="translate(327.244146319242 15.220202031705583) rotate(0 294.0511115160349 226.99748883928572)"><path d="M589.71 453.28 L573.24 448.72 L580.97 442.58 L587.27 454.65" stroke="none" stroke-width="0" fill="#1971c2" fill-rule="evenodd"></path><path d="M588.1 453.99 C584.53 451.54, 579.22 450.62, 573.47 450.69 M588.1 453.99 C584.01 453.3, 579.34 452.51, 573.47 450.69 M573.47 450.69 C576.36 446.73, 578.92 443.9, 581.23 440.66 M573.47 450.69 C576.72 446.65, 579.88 443.29, 581.23 440.66 M581.23 440.66 C583.65 444.64, 584.5 445.1, 588.1 453.99 M581.23 440.66 C583.24 444.47, 585.23 449.7, 588.1 453.99 M588.1 453.99 C588.1 453.99, 588.1 453.99, 588.1 453.99 M588.1 453.99 C588.1 453.99, 588.1 453.99, 588.1 453.99" stroke="#1971c2" stroke-width="2" fill="none"></path></g></g><mask></mask><g transform="translate(118.31055256924202 51.00926453170558) rotate(0 53.68994140625 12.5)"><text x="0" y="17.619999999999997" font-family="Excalifont, Xiaolai, sans-serif, Segoe UI Emoji" font-size="20px" fill="#1971c2" text-anchor="start" style="white-space: pre;" direction="ltr" dominant-baseline="alphabetic">LLM's Prior</text></g><g stroke-linecap="round"><g stroke-opacity="0.5" fill-opacity="0.5" transform="translate(234.17259247448993 84.23387390670558) rotate(0 254.21875 193.626953125)"><path d="M0 0 C151.07 113.31, 299.15 227.84, 508.44 387.25 M0 0 C106.71 79.71, 211.93 159.77, 508.44 387.25" stroke="#1971c2" stroke-width="2" fill="none"></path></g><g stroke-opacity="0.5" fill-opacity="0.5" transform="translate(234.17259247448993 84.23387390670558) rotate(0 254.21875 193.626953125)"><path d="M509.95 385.73 L493.92 383.88 L500.59 374.52 L506.57 388.87" stroke="none" stroke-width="0" fill="#1971c2" fill-rule="evenodd"></path><path d="M508.44 387.25 C505.47 385.27, 498.96 385.9, 493.79 384.02 M508.44 387.25 C505.57 387.38, 502.7 386.67, 493.79 384.02 M493.79 384.02 C497.6 379.51, 500.1 377.45, 501.5 373.95 M493.79 384.02 C496.81 380.52, 499 378.04, 501.5 373.95 M501.5 373.95 C504.83 378.49, 506.16 383.06, 508.44 387.25 M501.5 373.95 C503.58 378.01, 505.42 382.02, 508.44 387.25 M508.44 387.25 C508.44 387.25, 508.44 387.25, 508.44 387.25 M508.44 387.25 C508.44 387.25, 508.44 387.25, 508.44 387.25" stroke="#1971c2" stroke-width="2" fill="none"></path></g></g><mask></mask><g stroke-linecap="round"><g stroke-opacity="0.5" fill-opacity="0.5" transform="translate(10 44.47093658892129) rotate(0 276.7520043731779 209.74621332908163)"><path d="M0 0 C162.92 122.24, 324.35 244.72, 553.5 419.49 M0 0 C192.24 147.94, 385.97 293.94, 553.5 419.49" stroke="#1971c2" stroke-width="2" fill="none"></path></g><g stroke-opacity="0.5" fill-opacity="0.5" transform="translate(10 44.47093658892129) rotate(0 276.7520043731779 209.74621332908163)"><path d="M552.57 419.09 L539.93 417.12 L546.77 407 L553.85 418.4" stroke="none" stroke-width="0" fill="#1971c2" fill-rule="evenodd"></path><path d="M553.5 419.49 C549.58 419.52, 544.24 418.09, 538.83 416.4 M553.5 419.49 C548.2 418.93, 543.67 416.77, 538.83 416.4 M538.83 416.4 C540.33 413.93, 542.98 411.27, 546.44 406.26 M538.83 416.4 C540.75 414.19, 541.85 411.93, 546.44 406.26 M546.44 406.26 C548.23 411.27, 551.59 414.53, 553.5 419.49 M546.44 406.26 C548.57 410.96, 550.94 414.64, 553.5 419.49 M553.5 419.49 C553.5 419.49, 553.5 419.49, 553.5 419.49 M553.5 419.49 C553.5 419.49, 553.5 419.49, 553.5 419.49" stroke="#1971c2" stroke-width="2" fill="none"></path></g></g><mask></mask><g stroke-linecap="round" transform="translate(247.56250569424202 94.13619908962545) rotate(0 71.853515625 63.521484375)"><path d="M105.41 6.62 C114.68 9.95, 123.24 18.24, 129.47 25.69 C135.69 33.14, 140.72 42.35, 142.78 51.33 C144.84 60.3, 144.74 70.44, 141.82 79.53 C138.89 88.63, 131.95 98.82, 125.21 105.89 C118.47 112.96, 110.65 118.35, 101.39 121.97 C92.13 125.58, 80.07 128.11, 69.65 127.59 C59.24 127.08, 48.16 123.19, 38.89 118.86 C29.62 114.53, 20.42 109.01, 14.01 101.61 C7.59 94.21, 2.28 83.5, 0.4 74.48 C-1.48 65.45, -0.22 56.17, 2.72 47.46 C5.66 38.75, 11.23 29.41, 18.04 22.22 C24.85 15.03, 34.08 8.11, 43.57 4.31 C53.07 0.52, 64.46 -1.33, 75.01 -0.53 C85.56 0.28, 101.48 7.43, 106.87 9.14 C112.26 10.84, 107.96 8.75, 107.36 9.68 M98.81 4.42 C108.18 6.73, 116.29 13.45, 123.24 19.96 C130.18 26.46, 137.38 34.63, 140.49 43.45 C143.6 52.27, 143.15 63.68, 141.89 72.87 C140.63 82.06, 138.52 90.89, 132.92 98.6 C127.32 106.3, 117.54 114.45, 108.29 119.08 C99.04 123.71, 88.05 125.98, 77.44 126.38 C66.83 126.78, 54.43 124.52, 44.64 121.48 C34.85 118.45, 25.35 114.51, 18.71 108.15 C12.07 101.78, 8.04 92.33, 4.8 83.28 C1.55 74.23, -1.95 62.83, -0.75 53.87 C0.46 44.91, 5.98 37.01, 12.01 29.52 C18.04 22.03, 26.65 13.96, 35.44 8.93 C44.22 3.9, 54.33 0.28, 64.72 -0.65 C75.12 -1.58, 92.52 2.17, 97.81 3.36 C103.1 4.56, 97.02 5.47, 96.47 6.52" stroke="none" stroke-width="0" fill="#f08c00"></path><path d="M71.11 0.1 C81.05 -0.76, 93.78 2.52, 103.26 6.52 C112.74 10.51, 121.67 17.13, 127.98 24.08 C134.28 31.03, 138.78 39.41, 141.09 48.22 C143.41 57.04, 143.85 67.81, 141.88 76.98 C139.92 86.15, 135.67 95.87, 129.31 103.25 C122.95 110.62, 113.28 117.31, 103.73 121.24 C94.18 125.16, 82.59 126.76, 72.03 126.78 C61.47 126.8, 49.6 125.21, 40.36 121.35 C31.12 117.48, 22.85 110.74, 16.59 103.6 C10.32 96.45, 5.22 87.44, 2.75 78.48 C0.28 69.52, -0.19 58.79, 1.79 49.84 C3.77 40.88, 8.28 32.1, 14.64 24.73 C21 17.37, 29.07 9.59, 39.95 5.66 C50.83 1.72, 72.19 1.53, 79.94 1.14 C87.7 0.75, 86.71 2.41, 86.48 3.34 M45.78 3.76 C54.97 0.06, 69.13 0.5, 79.46 1.48 C89.79 2.46, 99.14 5.15, 107.76 9.64 C116.39 14.13, 125.42 20.88, 131.2 28.42 C136.97 35.95, 140.77 45.73, 142.4 54.86 C144.03 63.98, 144.06 74.27, 141 83.17 C137.93 92.07, 131.39 101.56, 124.01 108.27 C116.62 114.99, 106.54 120.37, 96.68 123.47 C86.82 126.58, 74.98 127.7, 64.82 126.9 C54.66 126.11, 44.38 123.57, 35.72 118.69 C27.05 113.81, 18.85 105.35, 12.84 97.61 C6.82 89.87, 1.17 81.05, -0.38 72.26 C-1.92 63.46, 0.21 53.77, 3.57 44.83 C6.92 35.88, 12.35 25.18, 19.74 18.6 C27.12 12.02, 43.03 7.66, 47.87 5.34 C52.71 3.03, 48.44 3.95, 48.77 4.7" stroke="#1e1e1e" stroke-width="2" fill="none"></path></g><g transform="translate(284.977931174082 132.74121111202763) rotate(0 34.629981994628906 25)"><text x="34.629981994628906" y="17.619999999999997" font-family="Excalifont, Xiaolai, sans-serif, Segoe UI Emoji" font-size="20px" fill="#1e1e1e" text-anchor="middle" style="white-space: pre;" direction="ltr" dominant-baseline="alphabetic">Your</text><text x="34.629981994628906" y="42.62" font-family="Excalifont, Xiaolai, sans-serif, Segoe UI Emoji" font-size="20px" fill="#1e1e1e" text-anchor="middle" style="white-space: pre;" direction="ltr" dominant-baseline="alphabetic">Prompt</text></g><g stroke-linecap="round" transform="translate(492.101568194242 262.58151158962545) rotate(0 84.54882812500006 73.833984375)"><path d="M77.83 0.53 C88.69 -1.21, 102.31 1.49, 113.01 4.78 C123.72 8.07, 133.71 13.5, 142.08 20.29 C150.45 27.08, 158.78 36.18, 163.24 45.53 C167.7 54.88, 169.11 66.27, 168.85 76.39 C168.58 86.51, 166.68 97.28, 161.65 106.25 C156.63 115.22, 147.52 123.7, 138.7 130.2 C129.88 136.69, 119.64 142.54, 108.75 145.23 C97.86 147.91, 84.88 147.82, 73.35 146.29 C61.82 144.76, 49.35 141.05, 39.57 136.04 C29.8 131.02, 21.15 124.44, 14.69 116.21 C8.23 107.97, 2.95 96.68, 0.82 86.62 C-1.31 76.57, -0.79 65.35, 1.9 55.88 C4.58 46.41, 9.96 37.47, 16.94 29.8 C23.92 22.13, 32.71 14.93, 43.77 9.86 C54.84 4.79, 75.52 0.9, 83.33 -0.6 C91.15 -2.1, 90.58 -0.37, 90.67 0.86 M50.63 6.98 C60.29 2.73, 76.06 1.24, 87.71 1.41 C99.35 1.58, 110.5 4.05, 120.51 8 C130.52 11.94, 140.14 17.71, 147.75 25.09 C155.37 32.46, 162.92 42.37, 166.19 52.23 C169.46 62.1, 168.71 74.37, 167.38 84.29 C166.05 94.21, 163.95 103.6, 158.2 111.74 C152.45 119.89, 142.31 127.35, 132.87 133.16 C123.44 138.97, 112.94 144.32, 101.59 146.58 C90.23 148.85, 76.35 148.85, 64.76 146.73 C53.16 144.62, 40.95 139.94, 32 133.88 C23.06 127.83, 16.44 119.4, 11.1 110.38 C5.75 101.37, 0.81 90.07, -0.06 79.78 C-0.92 69.5, 1.99 58.25, 5.9 48.68 C9.82 39.1, 15.88 29.39, 23.43 22.35 C30.98 15.3, 46.48 9.03, 51.19 6.39 C55.91 3.75, 51.04 5.44, 51.69 6.49" stroke="none" stroke-width="0" fill="#ffc9c9"></path><path d="M110.29 3.72 C121.17 5.63, 133.24 11.57, 141.72 18.25 C150.21 24.92, 156.67 34.38, 161.2 43.77 C165.73 53.17, 168.74 64.46, 168.91 74.62 C169.09 84.78, 166.79 95.86, 162.27 104.75 C157.74 113.65, 150.39 121.41, 141.76 127.98 C133.12 134.54, 121.57 140.93, 110.45 144.14 C99.33 147.34, 86.34 148.39, 75.04 147.2 C63.73 146.01, 52.57 142.09, 42.62 136.99 C32.68 131.9, 22.28 124.54, 15.36 116.63 C8.45 108.71, 3.29 99.27, 1.15 89.51 C-0.99 79.75, 0.06 67.96, 2.53 58.07 C4.99 48.18, 9.12 38.26, 15.94 30.18 C22.76 22.1, 33.3 14.56, 43.45 9.61 C53.59 4.65, 64.59 1.03, 76.81 0.44 C89.02 -0.15, 108.89 4.49, 116.74 6.05 C124.59 7.61, 124.15 8.58, 123.91 9.79 M104.04 2.64 C114.79 3.58, 126.19 7.54, 135.29 13.61 C144.4 19.68, 153.12 30.32, 158.68 39.08 C164.25 47.85, 167.77 56.55, 168.68 66.18 C169.59 75.82, 167.66 87.18, 164.16 96.91 C160.66 106.63, 155.32 116.84, 147.67 124.54 C140.02 132.23, 129.21 139.24, 118.26 143.08 C107.31 146.92, 93.36 148.07, 81.96 147.6 C70.55 147.13, 59.99 144.68, 49.82 140.25 C39.65 135.82, 28.51 128.39, 20.91 121.02 C13.31 113.66, 7.41 105.45, 4.23 96.04 C1.05 86.63, 0.33 74.61, 1.84 64.54 C3.36 54.47, 7.86 43.91, 13.33 35.63 C18.81 27.35, 25.31 20.82, 34.69 14.88 C44.07 8.93, 58.36 2.35, 69.6 -0.03 C80.85 -2.4, 96.51 0.25, 102.15 0.61 C107.8 0.98, 103.79 0.82, 103.47 2.18" stroke="#e03131" stroke-width="4" fill="none"></path></g><g transform="translate(537.6653725506201 311.20698493104135) rotate(0 39.199974060058594 25)"><text x="39.199974060058594" y="17.619999999999997" font-family="Excalifont, Xiaolai, sans-serif, Segoe UI Emoji" font-size="20px" fill="#1e1e1e" text-anchor="middle" style="white-space: pre;" direction="ltr" dominant-baseline="alphabetic">Actual</text><text x="39.199974060058594" y="42.62" font-family="Excalifont, Xiaolai, sans-serif, Segoe UI Emoji" font-size="20px" fill="#1e1e1e" text-anchor="middle" style="white-space: pre;" direction="ltr" dominant-baseline="alphabetic">Product</text></g><g stroke-linecap="round" transform="translate(488.916021319242 74.17332703170558) rotate(0 78.42773437500006 72.8984375)"><path d="M15.72 28.24 C15.72 28.24, 15.72 28.24, 15.72 28.24 M15.72 28.24 C15.72 28.24, 15.72 28.24, 15.72 28.24 M1.55 68.93 C23.74 43.16, 42.88 22.27, 56.66 5.53 M1.55 68.93 C21.24 44.88, 43.6 21.97, 56.66 5.53 M3.13 91.5 C35.29 56.78, 62.49 19.44, 81.2 1.69 M3.13 91.5 C33.27 58.43, 61.09 24.72, 81.2 1.69 M11.27 106.52 C32.79 81.13, 56.92 56.08, 99.18 5.39 M11.27 106.52 C29.16 85.43, 47.43 63.91, 99.18 5.39 M19.41 121.55 C38.66 98.71, 58.25 73.79, 115.85 10.61 M19.41 121.55 C53.03 81.77, 88.67 39.84, 115.85 10.61 M32.8 130.54 C54.59 106.11, 75.49 80.39, 129.89 18.84 M32.8 130.54 C63.75 96.85, 93.77 61.56, 129.89 18.84 M46.19 139.52 C64.81 116.29, 83.8 95.48, 141.31 30.09 M46.19 139.52 C68.7 115.12, 90.01 90.12, 141.31 30.09 M64.17 143.23 C91.36 108.06, 119.76 75.13, 149.45 45.12 M64.17 143.23 C93.34 107.23, 124.37 74.14, 149.45 45.12 M82.8 146.18 C106.81 121.4, 128.29 95.57, 154.31 63.92 M82.8 146.18 C100.7 124.68, 117.56 104.31, 154.31 63.92 M110.62 138.56 C120.76 123.49, 134.42 113, 155.23 87.24 M110.62 138.56 C127.3 120.97, 143.36 102.48, 155.23 87.24" stroke="#b2f2bb" stroke-width="2" fill="none"></path><path d="M75.65 0.71 C86.37 -0.7, 100.69 2.9, 111.16 6.91 C121.63 10.93, 131.32 16.86, 138.47 24.81 C145.63 32.76, 151.38 44.1, 154.09 54.6 C156.8 65.11, 156.86 77.57, 154.74 87.84 C152.63 98.11, 148.09 108.11, 141.38 116.25 C134.67 124.38, 124.57 131.72, 114.46 136.66 C104.36 141.6, 92.24 145.47, 80.76 145.91 C69.28 146.35, 55.92 143.51, 45.6 139.29 C35.29 135.08, 25.98 128.57, 18.87 120.62 C11.76 112.67, 5.93 101.91, 2.96 91.62 C-0.02 81.33, -1.1 69.42, 1 58.89 C3.1 48.35, 8.75 36.9, 15.56 28.43 C22.37 19.96, 30.06 12.75, 41.87 8.09 C53.68 3.42, 77.32 1.28, 86.42 0.44 C95.53 -0.41, 96.51 1.9, 96.48 3" stroke="#1e1e1e" stroke-width="4.5" fill="none" stroke-dasharray="8 12"></path></g><g transform="translate(528.1869988245237 122.02478503755187) rotate(0 39.199974060058594 24.999999999999993)"><text x="39.199974060058594" y="17.619999999999997" font-family="Excalifont, Xiaolai, sans-serif, Segoe UI Emoji" font-size="20px" fill="#1e1e1e" text-anchor="middle" style="white-space: pre;" direction="ltr" dominant-baseline="alphabetic">Ideal</text><text x="39.199974060058594" y="42.62" font-family="Excalifont, Xiaolai, sans-serif, Segoe UI Emoji" font-size="20px" fill="#1e1e1e" text-anchor="middle" style="white-space: pre;" direction="ltr" dominant-baseline="alphabetic">Product</text></g><g stroke-linecap="round"><g transform="translate(383.36895556651524 197.30422257028664) rotate(0 59.6202020919327 45.78483876545283)"><path d="M0 0 C42.93 32.97, 85.86 65.94, 119.24 91.57 M0 0 C35.09 26.94, 70.17 53.89, 119.24 91.57" stroke="#1971c2" stroke-width="2" fill="none"></path></g><g transform="translate(383.36895556651524 197.30422257028664) rotate(0 59.6202020919327 45.78483876545283)"><path d="M119.24 91.57 L104.6 88.32 L112.32 78.26 L119.24 91.57" stroke="none" stroke-width="0" fill="#1971c2" fill-rule="evenodd"></path><path d="M119.24 91.57 C113.97 90.4, 108.7 89.23, 104.6 88.32 M119.24 91.57 C114.93 90.61, 110.62 89.66, 104.6 88.32 M104.6 88.32 C106.27 86.14, 107.94 83.96, 112.32 78.26 M104.6 88.32 C107.29 84.82, 109.98 81.31, 112.32 78.26 M112.32 78.26 C115.02 83.45, 117.72 88.64, 119.24 91.57 M112.32 78.26 C114.72 82.89, 117.13 87.51, 119.24 91.57 M119.24 91.57 C119.24 91.57, 119.24 91.57, 119.24 91.57 M119.24 91.57 C119.24 91.57, 119.24 91.57, 119.24 91.57" stroke="#1971c2" stroke-width="2" fill="none"></path></g></g><mask></mask><g stroke-linecap="round"><g stroke-opacity="0.5" fill-opacity="0.5" transform="translate(473.38864340379024 10) rotate(0 294.87108236151596 225.69236857689503)"><path d="M0 0 C230.43 177.55, 461.17 355.19, 589.74 451.38 M0 0 C211.57 160.06, 423.66 322.79, 589.74 451.38" stroke="#1971c2" stroke-width="2" fill="none"></path></g><g stroke-opacity="0.5" fill-opacity="0.5" transform="translate(473.38864340379024 10) rotate(0 294.87108236151596 225.69236857689503)"><path d="M591.64 451.03 L575.56 446.45 L584.12 438.23 L589.42 451.48" stroke="none" stroke-width="0" fill="#1971c2" fill-rule="evenodd"></path><path d="M589.74 451.38 C585 449.13, 577.96 448.77, 575.11 448.1 M589.74 451.38 C584.05 450.24, 578.73 449.76, 575.11 448.1 M575.11 448.1 C578.18 444.32, 580.5 442.45, 582.85 438.06 M575.11 448.1 C576.72 445.2, 579.85 442.71, 582.85 438.06 M582.85 438.06 C584.16 441.14, 585.21 444.05, 589.74 451.38 M582.85 438.06 C585.23 443.22, 588.31 448.66, 589.74 451.38 M589.74 451.38 C589.74 451.38, 589.74 451.38, 589.74 451.38 M589.74 451.38 C589.74 451.38, 589.74 451.38, 589.74 451.38" stroke="#1971c2" stroke-width="2" fill="none"></path></g></g><mask></mask></svg>